<svg id="Слой_1" data-name="Слой 1" xmlns="http://www.w3.org/2000/svg" viewBox="0 0 65.32 10.02"><defs><style>.cls-1{fill:#ffa650;}.cls-2{fill:#dbdbdb;}</style></defs><g id="Слой_2" data-name="Слой 2"><g id="Слой_1-2" data-name="Слой 1-2"><path class="cls-1" d="M6.07,1.84A3,3,0,0,1,7.4,2.94a3,3,0,0,1,.47,1.68A3,3,0,0,1,7.4,6.3,3,3,0,0,1,6.07,7.4a5,5,0,0,1-2,.38H2.83V9.85H0V1.45H4A4.89,4.89,0,0,1,6.07,1.84ZM4.73,5.35A.94.94,0,0,0,5,4.62a.92.92,0,0,0-.29-.73,1.26,1.26,0,0,0-.86-.26h-1v2h1A1.27,1.27,0,0,0,4.73,5.35Z" transform="translate(0 0)"/><path class="cls-1" d="M9,2.37a1.26,1.26,0,0,1-.45-1A1.23,1.23,0,0,1,9,.39,1.76,1.76,0,0,1,10.19,0a1.82,1.82,0,0,1,1.19.37,1.2,1.2,0,0,1,.44,1,1.35,1.35,0,0,1-.44,1,1.72,1.72,0,0,1-1.19.4A1.72,1.72,0,0,1,9,2.37Zm-.17.92h2.71V9.85H8.83Z" transform="translate(0 0)"/><path class="cls-1" d="M18.77,7.87v2H12.5V8.29l2.71-3H12.6v-2h6V4.85l-2.71,3Z" transform="translate(0 0)"/><path class="cls-1" d="M25.61,7.87v2H19.34V8.29l2.71-3H19.44v-2h6V4.85l-2.71,3Z" transform="translate(0 0)"/><path class="cls-1" d="M32,3.94a3,3,0,0,1,.91,2.38V9.85H30.4V9a1.84,1.84,0,0,1-1.86,1,3,3,0,0,1-1.33-.27,1.9,1.9,0,0,1-1.11-1.8,1.68,1.68,0,0,1,.74-1.48A4,4,0,0,1,29.1,6h1.09c-.09-.51-.5-.77-1.24-.77a3,3,0,0,0-.9.14,2.57,2.57,0,0,0-.78.38L26.41,4a4.74,4.74,0,0,1,1.36-.55,6.54,6.54,0,0,1,1.59-.2A4,4,0,0,1,32,3.94ZM29.87,8.18a.9.9,0,0,0,.34-.47V7.26h-.67c-.55,0-.83.18-.83.55a.49.49,0,0,0,.17.38.67.67,0,0,0,.47.15A.87.87,0,0,0,29.87,8.18Z" transform="translate(0 0)"/><path class="cls-2" d="M36,3.65H33.54V1.45h7.75v2.2H38.83v6.2H36Z" transform="translate(0 0)"/><path class="cls-2" d="M42,2.37a1.26,1.26,0,0,1-.45-1,1.26,1.26,0,0,1,.45-1A1.72,1.72,0,0,1,43.18,0a1.82,1.82,0,0,1,1.19.37,1.2,1.2,0,0,1,.44,1,1.35,1.35,0,0,1-.44,1,1.72,1.72,0,0,1-1.19.4A1.74,1.74,0,0,1,42,2.37Zm-.17.92h2.71V9.85H41.82Z" transform="translate(0 0)"/><path class="cls-2" d="M56.32,3.9A3,3,0,0,1,57,6.11V9.85H54.32V6.58c0-.75-.24-1.13-.73-1.13a.75.75,0,0,0-.62.29,1.4,1.4,0,0,0-.23.91v3.2H50V6.58c0-.75-.24-1.13-.73-1.13a.75.75,0,0,0-.62.29,1.4,1.4,0,0,0-.23.91v3.2H45.73V3.29h2.58V3.9a2.53,2.53,0,0,1,1.86-.73,2.71,2.71,0,0,1,1.19.25,2,2,0,0,1,.86.75,2.62,2.62,0,0,1,1-.74,2.94,2.94,0,0,1,1.24-.26A2.53,2.53,0,0,1,56.32,3.9Z" transform="translate(0 0)"/><path class="cls-2" d="M65.28,7.2H60.72a1.12,1.12,0,0,0,.48.57A1.72,1.72,0,0,0,62,8a2,2,0,0,0,.73-.11,2.54,2.54,0,0,0,.64-.37L64.79,9A3.66,3.66,0,0,1,62,10a4.84,4.84,0,0,1-2.09-.44,3.35,3.35,0,0,1-1.39-1.22A3.22,3.22,0,0,1,58,6.56a3.23,3.23,0,0,1,.49-1.76A3.29,3.29,0,0,1,59.8,3.6a4.4,4.4,0,0,1,3.72,0,3.13,3.13,0,0,1,1.31,1.16,3.3,3.3,0,0,1,.49,1.84S65.3,6.82,65.28,7.2ZM61,5.24a1.11,1.11,0,0,0-.36.65h2.11a1.09,1.09,0,0,0-.36-.64,1,1,0,0,0-.7-.23A1.07,1.07,0,0,0,61,5.24Z" transform="translate(0 0)"/></g></g></svg>