<svg id="Gears_icon" data-name="Gears icon" xmlns="http://www.w3.org/2000/svg" viewBox="0 0 160.7 129.25"><defs><style>.cls-1{fill:#487fbc;}.cls-1,.cls-2,.cls-3{fill-rule:evenodd;}.cls-2{fill:#daeaf2;}.cls-3{fill:#00234a;opacity:0.2;isolation:isolate;}</style></defs><path class="cls-1" d="M97.08,56.57A3.77,3.77,0,0,0,100,53V45a3.75,3.75,0,0,0-2.94-3.55l-6.42-1.2a5.63,5.63,0,0,1-3.9-3.4L84.9,32.32a5.67,5.67,0,0,1,.35-5.16l3.69-5.38a3.77,3.77,0,0,0-.43-4.6l-5.66-5.65a3.75,3.75,0,0,0-4.6-.43l-5.31,3.63a5.59,5.59,0,0,1-5.15.34l-4.65-1.94a5.67,5.67,0,0,1-3.4-3.9L58.57,3A3.75,3.75,0,0,0,55,0H47a3.77,3.77,0,0,0-3.56,3L42.3,9.19a5.66,5.66,0,0,1-3.4,3.89L34.18,15A5.64,5.64,0,0,1,29,14.69L23.78,11.1a3.77,3.77,0,0,0-4.6.43l-5.65,5.66a3.77,3.77,0,0,0-.43,4.6L16.69,27A5.62,5.62,0,0,1,17,32.19l-1.94,4.7a5.61,5.61,0,0,1-3.89,3.4L5,41.46A3.78,3.78,0,0,0,2,45v8a3.77,3.77,0,0,0,3,3.55l6.25,1.17a5.63,5.63,0,0,1,3.89,3.4L17,65.84A5.61,5.61,0,0,1,16.69,71L13.1,76.24a3.78,3.78,0,0,0,.43,4.6l5.66,5.65a3.75,3.75,0,0,0,4.6.43L29,83.34A5.64,5.64,0,0,1,34.18,83l4.72,1.94a5.66,5.66,0,0,1,3.4,3.89l1.16,6.23A3.77,3.77,0,0,0,47,98h8a3.75,3.75,0,0,0,3.55-3l1.17-6.27a5.69,5.69,0,0,1,3.4-3.9L67.79,83a5.62,5.62,0,0,1,5.15.33l5.31,3.64a3.75,3.75,0,0,0,4.6-.43l5.66-5.65a3.78,3.78,0,0,0,.43-4.6l-3.69-5.38a5.67,5.67,0,0,1-.35-5.16l1.86-4.53a5.61,5.61,0,0,1,3.9-3.4ZM50.94,62A13,13,0,1,1,63.87,49v0A13,13,0,0,1,50.94,62Zm99.9,32.49A6.25,6.25,0,0,1,154,90.2l4.73-2.28a3.75,3.75,0,0,0,1.93-4.19l-1.88-7A3.78,3.78,0,0,0,155,74l-5.85.45a6.09,6.09,0,0,1-4.7-1.93l-1-1a21.84,21.84,0,0,0-2.82-2.44,5.74,5.74,0,0,1-2.25-4.68l.31-4A3.78,3.78,0,0,0,136,56.64l-7-1.88a3.76,3.76,0,0,0-4.2,1.93l-2.16,4.5a7,7,0,0,1-4.24,3.34l-3.94,1.27a6.16,6.16,0,0,1-5.24-.52l-3.51-2.4a3.77,3.77,0,0,0-4.6.42l-5.14,5.14a3.77,3.77,0,0,0-.42,4.6l2.83,4.14a6.8,6.8,0,0,1,.74,5.32l-.76,3a6.42,6.42,0,0,1-3.16,4.26l-4.16,2A3.77,3.77,0,0,0,89.08,96L91,103a3.78,3.78,0,0,0,3.77,2.67l4.49-.35a6,6,0,0,1,4.76,2.19,20.46,20.46,0,0,0,1.67,1.81c.49.51,1,1,1.54,1.46a6.11,6.11,0,0,1,2.18,4.78L109,120a3.77,3.77,0,0,0,2.67,3.76l7,1.88a3.75,3.75,0,0,0,4.19-1.93l1.86-3.86a6.32,6.32,0,0,1,4.26-3.15l4.18-1.07a6.66,6.66,0,0,1,5.3.68l5.1,3.5a3.77,3.77,0,0,0,4.6-.43l5.14-5.14a3.75,3.75,0,0,0,.43-4.59l-3.46-5.06a6.62,6.62,0,0,1-.68-5.3Zm-20.37,1.9a8.38,8.38,0,1,1,0-11.86l0,0a8.36,8.36,0,0,1,0,11.83h0Z" transform="translate(-0.02 -0.02)"/><path id="Color_Fill_4" data-name="Color Fill 4" class="cls-2" d="M133.5,99.4a12.67,12.67,0,1,1,0-17.92h0A12.68,12.68,0,0,1,133.5,99.4ZM50.94,67.49A18.48,18.48,0,1,1,69.37,49V49A18.47,18.47,0,0,1,50.94,67.5h0Z" transform="translate(-0.02 -0.02)"/><path class="cls-3" d="M15.88,13.88l70,70s-37,37-71,0S15.88,13.88,15.88,13.88Zm81,51,55,53s-26,25-52,1C74.88,95.88,96.88,64.88,96.88,64.88Z" transform="translate(-0.02 -0.02)"/></svg>