<?xml version="1.0" encoding="utf-8"?>
<!-- Generator: Adobe Illustrator 25.2.1, SVG Export Plug-In . SVG Version: 6.00 Build 0)  -->
<svg version="1.1" id="Rocket_icon" xmlns="http://www.w3.org/2000/svg" xmlns:xlink="http://www.w3.org/1999/xlink" x="0px"
	 y="0px" viewBox="0 0 116.5 145.3" style="enable-background:new 0 0 116.5 145.3;" xml:space="preserve">
<style type="text/css">
	.st0{fill-rule:evenodd;clip-rule:evenodd;fill:#3A6DA5;}
	.st1{fill-rule:evenodd;clip-rule:evenodd;fill:#487FBC;}
	.st2{fill-rule:evenodd;clip-rule:evenodd;fill:#D97475;}
	.st3{fill-rule:evenodd;clip-rule:evenodd;fill:#F1C40F;}
	.st4{fill-rule:evenodd;clip-rule:evenodd;fill:#DAEAF2;}
	.st5{fill-rule:evenodd;clip-rule:evenodd;fill:#BEDAE8;}
	.st6{fill-rule:evenodd;clip-rule:evenodd;fill:#D84848;}
	.st7{fill-rule:evenodd;clip-rule:evenodd;fill:#F57B71;}
	.st8{fill-rule:evenodd;clip-rule:evenodd;fill:#FFFFFF;}
	.st9{fill-rule:evenodd;clip-rule:evenodd;fill:#5AD2EB;}
</style>
<path class="st0" d="M48,120.2c1,0.9,1.7,2.2,1.7,3.6c0.1,2.4-0.6,17.6-0.6,17.6s14.4-17,18.6-22.3c4.1-5.6,3.2-13.4-2.1-17.9
	C59.5,95.9,48,120.2,48,120.2z"/>
<path id="Color_Fill_5" class="st1" d="M18.9,103.3c-1.3-0.5-2.7-0.3-3.9,0.3c-2.1,1.1-14.9,9.3-14.9,9.3s7.5-21,10-27.3
	c2.8-6.4,10-9.5,16.5-7.1C34.2,81.3,18.9,103.3,18.9,103.3z"/>
<path class="st2" d="M26,108.3l13.9,8c1.7,0.9,2.3,3.1,1.4,4.8c-0.9,1.7-3.1,2.3-4.8,1.4c0,0-0.1-0.1-0.1-0.1l-13.9-8
	c-1.7-1-2.2-3.2-1.2-4.8C22.3,108,24.4,107.4,26,108.3z"/>
<path class="st3" d="M29.8,119.5c3.8,2.2,5.1,7.1,2.9,10.9c-2.2,3.8-17.1,13.5-17.1,13.5s1-17.7,3.2-21.5
	C21,118.6,25.9,117.3,29.8,119.5C29.7,119.5,29.7,119.5,29.8,119.5z"/>
<path class="st4" d="M91.4,16.7c-0.5-1.2-0.8-2.4-0.9-3.6c0.1-0.2,0.1-0.3,0.1-0.3c-0.2,0-0.4-0.1-0.6-0.2c-0.1-0.1-0.2-0.1-0.3,0.1
	c-1.1,0.5-2.3,0.9-3.6,1.1c0,0-35.1,8-50.8,36.7c-17.5,32-16.2,53.8-16.2,53.8c0.1,2.1,1.2,4.1,2.9,5.2l5.8,3.3c1.7,1,3.2,1.8,3.4,2
	s1.7,1,3.4,2l6.1,3.5c1.9,1,4.1,1,6,0c0,0,18.6-10.4,37.5-41.5C101.5,50.8,91.4,16.7,91.4,16.7z"/>
<path class="st5" d="M190.3,44.3l25.1,14.5l-61,105.6L129.3,150L190.3,44.3z"/>
<path id="Shape_29_copy" class="st6" d="M151.1,16.8l15.6,9l-13,22.5c-4.6-4-9.4-7.5-14.6-10.7L151.1,16.8z"/>
<path class="st7" d="M165.6,56.8c-0.2-0.1-0.5-0.3-0.7-0.4c-5.3-3-10.9-5.5-16.7-7.4l13-22.5l16.5,9.5L165.6,56.8z"/>
<path id="Shape_28_copy" class="st8" d="M70.9,46.5c7.9,4.5,10.6,14.6,6,22.5c-4.5,7.9-14.6,10.6-22.5,6c-7.9-4.5-10.6-14.6-6-22.5
	c0,0,0,0,0,0C53,44.7,63.1,42,70.9,46.5z"/>
<path class="st9" d="M68.9,50c6,3.5,8,11.1,4.6,17.1c-3.5,6-11.1,8-17.1,4.6c-6-3.5-8-11.1-4.6-17.1C55.3,48.6,63,46.5,68.9,50
	C68.9,50,68.9,50,68.9,50z"/>
</svg>
